# Blender v2.77 (sub 0) OBJ File: 'tree.blend'
# www.blender.org
mtllib tree.mtl
o Cylinder.001_Cylinder.002
v -0.493602 0.009627 1.098616
v -0.493602 1.601277 1.126104
v -0.262033 0.009627 1.194535
v -0.281470 1.601277 1.213972
v -0.166114 0.009627 1.426104
v -0.193602 1.601277 1.426104
v -0.262033 0.009627 1.657673
v -0.281470 1.601277 1.638236
v -0.493602 0.009627 1.753592
v -0.493602 1.601277 1.726104
v -0.725171 0.009627 1.657673
v -0.705734 1.601277 1.638236
v -0.821090 0.009627 1.426104
v -0.793602 1.601277 1.426104
v -0.725171 0.009627 1.194535
v -0.705734 1.601277 1.213972
v -0.493602 0.805452 1.180263
v -0.319767 0.805452 1.252268
v -0.247762 0.805452 1.426104
v -0.319767 0.805452 1.599939
v -0.493602 0.805452 1.671944
v -0.667438 0.805452 1.599939
v -0.739443 0.805452 1.426104
v -0.667438 0.805452 1.252268
vn 0.381900 -0.062800 -0.922100
vn 0.922100 -0.062800 -0.381900
vn 0.922100 -0.062800 0.381900
vn 0.381900 -0.062800 0.922100
vn -0.381900 -0.062800 0.922100
vn -0.922100 -0.062800 0.381900
vn 0.000000 1.000000 0.000000
vn -0.922100 -0.062800 -0.381900
vn -0.381900 -0.062800 -0.922100
vn 0.000000 -1.000000 0.000000
vn -0.381000 0.094400 -0.919800
vn -0.919800 0.094400 -0.381000
vn -0.919800 0.094400 0.381000
vn -0.381000 0.094400 0.919800
vn 0.381000 0.094400 0.919800
vn 0.919800 0.094400 0.381000
vn 0.919800 0.094400 -0.381000
vn 0.381000 0.094400 -0.919800
usemtl mat1
s off
f 17//1 2//1 4//1 18//1
f 18//2 4//2 6//2 19//2
f 19//3 6//3 8//3 20//3
f 20//4 8//4 10//4 21//4
f 21//5 10//5 12//5 22//5
f 22//6 12//6 14//6 23//6
f 4//7 2//7 16//7 14//7 12//7 10//7 8//7 6//7
f 23//8 14//8 16//8 24//8
f 24//9 16//9 2//9 17//9
f 1//10 3//10 5//10 7//10 9//10 11//10 13//10 15//10
f 15//11 24//11 17//11 1//11
f 13//12 23//12 24//12 15//12
f 11//13 22//13 23//13 13//13
f 9//14 21//14 22//14 11//14
f 7//15 20//15 21//15 9//15
f 5//16 19//16 20//16 7//16
f 3//17 18//17 19//17 5//17
f 1//18 17//18 18//18 3//18
o Cylinder_Cylinder.001
v -0.493693 1.136262 0.409017
v -0.493472 7.553496 1.323133
v 0.213504 1.352902 0.718997
v -0.420331 7.553496 1.353429
v 0.538868 1.136262 1.441578
v -0.386736 7.471259 1.438318
v 0.213504 1.352902 2.133210
v -0.420331 7.553496 1.499710
v -0.493693 1.136262 2.474139
v -0.493472 7.553496 1.530006
v -1.200709 1.352902 2.133210
v -0.566612 7.553496 1.499710
v -1.526254 1.136262 1.441578
v -0.596908 7.553496 1.426569
v -1.200709 1.352902 0.718997
v -0.566612 7.553496 1.353429
v -0.493693 2.170238 0.557664
v -0.493693 3.204213 0.706311
v -0.493693 4.238189 0.854958
v -0.493693 5.272164 1.003604
v -0.493693 6.306140 1.152251
v -0.295469 6.522780 1.227970
v -0.193674 5.488805 1.126176
v -0.091880 4.454829 1.024381
v 0.009915 3.420854 0.922586
v 0.111710 2.386878 0.820792
v -0.204366 6.306140 1.441578
v -0.055719 5.272164 1.441578
v 0.092928 4.238189 1.441578
v 0.241575 3.204213 1.441578
v 0.390221 2.170238 1.441578
v -0.295469 6.522780 1.624237
v -0.193674 5.488805 1.726032
v -0.091880 4.454829 1.827826
v 0.009915 3.420854 1.929621
v 0.111710 2.386878 2.031416
v -0.493693 6.306140 1.730905
v -0.493693 5.272164 1.879552
v -0.493693 4.238189 2.028198
v -0.493693 3.204213 2.176846
v -0.493693 2.170238 2.325492
v -0.691736 6.522780 1.624237
v -0.793530 5.488805 1.726032
v -0.895325 4.454829 1.827826
v -0.997120 3.420854 1.929621
v -1.098915 2.386878 2.031416
v -0.783020 6.306140 1.441578
v -0.931666 5.272164 1.441578
v -1.080313 4.238189 1.441578
v -1.228960 3.204213 1.441578
v -1.377607 2.170238 1.441578
v -0.691736 6.522780 1.227970
v -0.793530 5.488805 1.126176
v -0.895325 4.454829 1.024381
v -0.997120 3.420854 0.922586
v -1.098915 2.386878 0.820792
v -0.493693 6.306140 0.994456
v -0.187409 6.522780 1.119911
v -0.046571 6.306140 1.441578
v -0.187409 6.522780 1.732297
v -0.493693 6.306140 1.888700
v -0.799796 6.522780 1.732297
v -0.940815 6.306140 1.441578
v -0.799796 6.522780 1.119911
v -0.493693 5.272164 0.682574
v 0.026170 5.488805 0.906331
v 0.265311 5.272164 1.441578
v 0.026170 5.488805 1.945876
v -0.493693 5.272164 2.200582
v -1.013375 5.488805 1.945876
v -1.252697 5.272164 1.441578
v -1.013375 5.488805 0.906331
v -0.493693 4.238189 0.420880
v 0.205381 4.454829 0.727121
v 0.527005 4.238189 1.441578
v 0.205381 4.454829 2.125087
v -0.493693 4.238189 2.462276
v -1.192585 4.454829 2.125086
v -1.514391 4.238189 1.441578
v -1.192585 4.454829 0.727121
v -0.493693 3.204213 0.151552
v 0.389819 3.420854 0.542683
v 0.796334 3.204213 1.441578
v 0.389819 3.420854 2.309525
v -0.493693 3.204213 2.731604
v -1.377023 3.420854 2.309525
v -1.783719 3.204213 1.441578
v -1.377023 3.420854 0.542683
v -0.493693 2.170238 -0.121305
v 0.576673 2.386878 0.355828
v 1.069190 2.170238 1.441578
v 0.576673 2.386878 2.496379
v -0.493693 2.170238 3.004461
v -1.563878 2.386878 2.496379
v -2.056576 2.170238 1.441578
v -1.563878 2.386878 0.355828
v 0.767762 1.352902 0.164740
v 1.348229 1.136262 1.441578
v 0.767762 1.352902 2.687468
v -0.493693 1.136262 3.283500
v -1.754967 1.352902 2.687468
v -2.335615 1.136262 1.441578
v -1.754967 1.352902 0.164740
v -0.493693 1.136262 -0.400344
vn 0.238600 0.255600 -0.936900
vn 0.941100 0.267300 -0.207200
vn 0.934200 0.269000 0.234500
vn 0.297700 0.268200 0.916200
vn -0.297800 0.268300 0.916200
vn -0.923700 0.264200 0.277600
vn 0.193500 0.981100 0.000000
vn -0.929700 0.260500 -0.260500
vn -0.238700 0.255700 -0.936800
vn 0.000000 -1.000000 0.000000
vn -0.182500 0.640300 -0.746200
vn -0.187300 0.583900 -0.789900
vn -0.187600 0.520900 -0.832700
vn -0.180300 0.450000 -0.874600
vn -0.155700 0.374100 -0.914200
vn -0.743700 0.640900 -0.190400
vn -0.786900 0.584700 -0.197400
vn -0.829000 0.521900 -0.200900
vn -0.870000 0.451400 -0.198600
vn -0.908300 0.376100 -0.183400
vn -0.741900 0.641200 0.196000
vn -0.784800 0.585100 0.204200
vn -0.826500 0.522500 0.209400
vn -0.867000 0.452100 0.209600
vn -0.904900 0.377000 0.197700
vn -0.203600 0.641700 0.739400
vn -0.213900 0.585700 0.781700
vn -0.222100 0.523200 0.822700
vn -0.227000 0.453100 0.862100
vn -0.223700 0.378500 0.898200
vn 0.203600 0.641700 0.739400
vn 0.213900 0.585700 0.781800
vn 0.222100 0.523200 0.822800
vn 0.226900 0.453100 0.862100
vn 0.223600 0.378500 0.898200
vn 0.741900 0.641200 0.195800
vn 0.784800 0.585100 0.204100
vn 0.826600 0.522400 0.209200
vn 0.867100 0.452100 0.209300
vn 0.905000 0.377000 0.197300
vn 0.743700 0.640800 -0.190300
vn 0.786900 0.584700 -0.197300
vn 0.829100 0.521900 -0.200700
vn 0.870000 0.451300 -0.198400
vn 0.908300 0.376000 -0.183000
vn 0.182400 0.640300 -0.746200
vn 0.187200 0.583900 -0.789900
vn 0.187600 0.520900 -0.832700
vn 0.180200 0.450000 -0.874600
vn 0.155600 0.374000 -0.914300
vn -0.577900 -0.781500 0.234900
vn 0.224500 -0.802800 -0.552400
vn 0.239400 -0.771900 0.589000
vn -0.563100 -0.794100 -0.228900
vn 0.562800 -0.794300 -0.228800
vn -0.239400 -0.771800 0.589100
vn -0.224600 -0.802700 -0.552500
vn 0.577700 -0.781700 0.234800
vn 0.405500 -0.899100 0.164800
vn -0.159000 -0.906500 -0.391200
vn -0.167400 -0.895700 0.412000
vn 0.397100 -0.903500 -0.161400
vn -0.397200 -0.903400 -0.161400
vn 0.167400 -0.895700 0.411900
vn 0.159000 -0.906500 -0.391200
vn -0.405600 -0.899000 0.164900
vn 0.314900 -0.940500 0.128000
vn -0.124300 -0.944000 -0.305800
vn -0.129600 -0.938900 0.318900
vn 0.309500 -0.942500 -0.125800
vn -0.309600 -0.942500 -0.125800
vn 0.129600 -0.938900 0.318900
vn 0.124300 -0.944000 -0.305800
vn -0.314900 -0.940400 0.128000
vn 0.254900 -0.961400 0.103600
vn -0.101100 -0.963300 -0.248800
vn -0.104700 -0.960500 0.257600
vn 0.251300 -0.962500 -0.102200
vn -0.251400 -0.962500 -0.102200
vn 0.104700 -0.960600 0.257600
vn 0.101100 -0.963300 -0.248800
vn -0.255000 -0.961400 0.103600
vn 0.213300 -0.973100 0.086700
vn -0.084900 -0.974200 -0.209000
vn -0.087500 -0.972600 0.215200
vn 0.210800 -0.973800 -0.085700
vn -0.210800 -0.973800 -0.085700
vn 0.087500 -0.972600 0.215200
vn 0.084900 -0.974200 -0.209000
vn -0.213300 -0.973100 0.086700
vn 0.182700 -0.980300 0.074300
vn -0.073000 -0.981000 -0.179500
vn -0.074900 -0.980000 0.184200
vn 0.180900 -0.980800 -0.073500
vn -0.180900 -0.980800 -0.073500
vn 0.074900 -0.980000 0.184200
vn 0.073000 -0.981000 -0.179500
vn -0.182800 -0.980300 0.074300
usemtl mat1.001
s off
f 81//19 26//19 28//19 82//19
f 82//20 28//20 30//20 83//20
f 83//21 30//21 32//21 84//21
f 84//22 32//22 34//22 85//22
f 85//23 34//23 36//23 86//23
f 86//24 36//24 38//24 87//24
f 28//25 26//25 40//25 38//25 36//25 34//25 32//25 30//25
f 87//26 38//26 40//26 88//26
f 88//27 40//27 26//27 81//27
f 25//28 27//28 29//28 31//28 33//28 35//28 37//28 39//28
f 127//29 80//29 41//29 128//29
f 120//30 79//30 42//30 113//30
f 112//31 78//31 43//31 105//31
f 104//32 77//32 44//32 97//32
f 96//33 76//33 45//33 89//33
f 126//34 75//34 80//34 127//34
f 119//35 74//35 79//35 120//35
f 111//36 73//36 78//36 112//36
f 103//37 72//37 77//37 104//37
f 95//38 71//38 76//38 96//38
f 125//39 70//39 75//39 126//39
f 118//40 69//40 74//40 119//40
f 110//41 68//41 73//41 111//41
f 102//42 67//42 72//42 103//42
f 94//43 66//43 71//43 95//43
f 124//44 65//44 70//44 125//44
f 117//45 64//45 69//45 118//45
f 109//46 63//46 68//46 110//46
f 101//47 62//47 67//47 102//47
f 93//48 61//48 66//48 94//48
f 123//49 60//49 65//49 124//49
f 116//50 59//50 64//50 117//50
f 108//51 58//51 63//51 109//51
f 100//52 57//52 62//52 101//52
f 92//53 56//53 61//53 93//53
f 122//54 55//54 60//54 123//54
f 115//55 54//55 59//55 116//55
f 107//56 53//56 58//56 108//56
f 99//57 52//57 57//57 100//57
f 91//58 51//58 56//58 92//58
f 121//59 50//59 55//59 122//59
f 114//60 49//60 54//60 115//60
f 106//61 48//61 53//61 107//61
f 98//62 47//62 52//62 99//62
f 90//63 46//63 51//63 91//63
f 128//64 41//64 50//64 121//64
f 113//65 42//65 49//65 114//65
f 105//66 43//66 48//66 106//66
f 97//67 44//67 47//67 98//67
f 89//68 45//68 46//68 90//68
f 76//69 88//69 81//69 45//69
f 71//70 87//70 88//70 76//70
f 66//71 86//71 87//71 71//71
f 61//72 85//72 86//72 66//72
f 56//73 84//73 85//73 61//73
f 51//74 83//74 84//74 56//74
f 46//75 82//75 83//75 51//75
f 45//76 81//76 82//76 46//76
f 44//77 89//77 90//77 47//77
f 47//78 90//78 91//78 52//78
f 52//79 91//79 92//79 57//79
f 57//80 92//80 93//80 62//80
f 62//81 93//81 94//81 67//81
f 67//82 94//82 95//82 72//82
f 72//83 95//83 96//83 77//83
f 77//84 96//84 89//84 44//84
f 43//85 97//85 98//85 48//85
f 48//86 98//86 99//86 53//86
f 53//87 99//87 100//87 58//87
f 58//88 100//88 101//88 63//88
f 63//89 101//89 102//89 68//89
f 68//90 102//90 103//90 73//90
f 73//91 103//91 104//91 78//91
f 78//92 104//92 97//92 43//92
f 42//93 105//93 106//93 49//93
f 49//94 106//94 107//94 54//94
f 54//95 107//95 108//95 59//95
f 59//96 108//96 109//96 64//96
f 64//97 109//97 110//97 69//97
f 69//98 110//98 111//98 74//98
f 74//99 111//99 112//99 79//99
f 79//100 112//100 105//100 42//100
f 41//101 113//101 114//101 50//101
f 50//102 114//102 115//102 55//102
f 55//103 115//103 116//103 60//103
f 60//104 116//104 117//104 65//104
f 65//105 117//105 118//105 70//105
f 70//106 118//106 119//106 75//106
f 75//107 119//107 120//107 80//107
f 80//108 120//108 113//108 41//108
f 25//109 128//109 121//109 27//109
f 27//110 121//110 122//110 29//110
f 29//111 122//111 123//111 31//111
f 31//112 123//112 124//112 33//112
f 33//113 124//113 125//113 35//113
f 35//114 125//114 126//114 37//114
f 37//115 126//115 127//115 39//115
f 39//116 127//116 128//116 25//116
