# Blender v2.77 (sub 0) OBJ File: 'tree.blend'
# www.blender.org
mtllib tree_snow.mtl
o Cylinder.004_Cylinder.005
v -0.140178 1.274900 -0.943481
v -0.139956 7.692133 -0.029365
v 0.567020 1.491540 -0.633501
v -0.066816 7.692133 0.000931
v 0.892383 1.274900 0.089080
v -0.033221 7.609896 0.085820
v 0.567020 1.491540 0.780713
v -0.066816 7.692133 0.147213
v -0.140178 1.274900 1.121642
v -0.139956 7.692133 0.177508
v -0.847194 1.491540 0.780713
v -0.213097 7.692133 0.147213
v -1.172739 1.274900 0.089080
v -0.243393 7.692133 0.074072
v -0.847194 1.491540 -0.633501
v -0.213097 7.692133 0.000931
v -0.140178 2.308875 -0.794834
v -0.140178 3.342851 -0.646187
v -0.140178 4.376826 -0.497540
v -0.140178 5.410802 -0.348893
v -0.140178 6.444777 -0.200246
v 0.058046 6.661418 -0.124527
v 0.159841 5.627442 -0.226322
v 0.261636 4.593467 -0.328117
v 0.363430 3.559491 -0.429911
v 0.465225 2.525516 -0.531706
v 0.149149 6.444777 0.089080
v 0.297796 5.410802 0.089080
v 0.446443 4.376826 0.089080
v 0.595090 3.342851 0.089080
v 0.743737 2.308875 0.089080
v 0.058046 6.661418 0.271740
v 0.159841 5.627442 0.373534
v 0.261636 4.593467 0.475329
v 0.363430 3.559491 0.577124
v 0.465225 2.525516 0.678918
v -0.140178 6.444777 0.378407
v -0.140178 5.410802 0.527054
v -0.140178 4.376826 0.675701
v -0.140178 3.342851 0.824348
v -0.140178 2.308875 0.972995
v -0.338221 6.661418 0.271740
v -0.440015 5.627442 0.373534
v -0.541810 4.593467 0.475329
v -0.643605 3.559491 0.577124
v -0.745399 2.525516 0.678918
v -0.429504 6.444777 0.089080
v -0.578151 5.410802 0.089080
v -0.726798 4.376826 0.089080
v -0.875445 3.342851 0.089080
v -1.024092 2.308875 0.089080
v -0.338221 6.661418 -0.124527
v -0.440015 5.627442 -0.226322
v -0.541810 4.593467 -0.328117
v -0.643605 3.559491 -0.429911
v -0.745399 2.525516 -0.531706
v -0.140178 6.444777 -0.358042
v 0.166106 6.661418 -0.232587
v 0.306944 6.444777 0.089080
v 0.166106 6.661418 0.379799
v -0.140178 6.444777 0.536203
v -0.446280 6.661418 0.379799
v -0.587300 6.444777 0.089080
v -0.446280 6.661418 -0.232587
v -0.140178 5.410802 -0.669923
v 0.379685 5.627442 -0.446166
v 0.618826 5.410802 0.089080
v 0.379685 5.627442 0.593378
v -0.140178 5.410802 0.848084
v -0.659860 5.627442 0.593378
v -0.899181 5.410802 0.089080
v -0.659860 5.627442 -0.446166
v -0.140178 4.376826 -0.931617
v 0.558896 4.593467 -0.625377
v 0.880520 4.376826 0.089080
v 0.558896 4.593467 0.772589
v -0.140178 4.376826 1.109778
v -0.839070 4.593467 0.772589
v -1.160876 4.376826 0.089080
v -0.839070 4.593467 -0.625377
v -0.140178 3.342851 -1.200946
v 0.743334 3.559491 -0.809815
v 1.149849 3.342851 0.089080
v 0.743334 3.559491 0.957027
v -0.140178 3.342851 1.379107
v -1.023508 3.559491 0.957027
v -1.430204 3.342851 0.089080
v -1.023508 3.559491 -0.809815
v -0.140178 2.308875 -1.473802
v 0.930189 2.525516 -0.996669
v 1.422705 2.308875 0.089081
v 0.930189 2.525516 1.143882
v -0.140178 2.308875 1.651963
v -1.210363 2.525516 1.143882
v -1.703060 2.308875 0.089080
v -1.210363 2.525516 -0.996669
v 1.121277 1.491540 -1.187758
v 1.701744 1.274900 0.089081
v 1.121277 1.491540 1.334970
v -0.140178 1.274900 1.931003
v -1.401451 1.491540 1.334970
v -1.982100 1.274900 0.089080
v -1.401451 1.491540 -1.187758
v -0.140178 1.274900 -1.752842
vn 0.238600 0.255600 -0.936900
vn 0.941100 0.267300 -0.207200
vn 0.934200 0.269000 0.234500
vn 0.297700 0.268200 0.916200
vn -0.297800 0.268300 0.916200
vn -0.923700 0.264200 0.277600
vn 0.193500 0.981100 -0.000000
vn -0.929700 0.260500 -0.260500
vn -0.238700 0.255700 -0.936800
vn -0.000000 -1.000000 -0.000000
vn -0.182500 0.640300 -0.746200
vn -0.187300 0.583900 -0.789900
vn -0.187600 0.520900 -0.832700
vn -0.180300 0.450000 -0.874600
vn -0.155700 0.374100 -0.914200
vn -0.743700 0.640900 -0.190400
vn -0.786900 0.584700 -0.197400
vn -0.829000 0.521900 -0.200900
vn -0.870000 0.451400 -0.198600
vn -0.908300 0.376100 -0.183400
vn -0.741900 0.641200 0.196000
vn -0.784800 0.585100 0.204200
vn -0.826500 0.522500 0.209400
vn -0.867000 0.452100 0.209600
vn -0.904900 0.377000 0.197700
vn -0.203600 0.641700 0.739400
vn -0.213900 0.585700 0.781700
vn -0.222100 0.523200 0.822700
vn -0.227000 0.453100 0.862100
vn -0.223700 0.378500 0.898200
vn 0.203600 0.641700 0.739400
vn 0.213900 0.585700 0.781800
vn 0.222100 0.523200 0.822800
vn 0.226900 0.453100 0.862100
vn 0.223600 0.378500 0.898200
vn 0.741900 0.641200 0.195800
vn 0.784800 0.585100 0.204100
vn 0.826600 0.522400 0.209200
vn 0.867100 0.452100 0.209300
vn 0.905000 0.377000 0.197300
vn 0.743700 0.640800 -0.190300
vn 0.786900 0.584700 -0.197300
vn 0.829100 0.521900 -0.200700
vn 0.870000 0.451300 -0.198400
vn 0.908300 0.376000 -0.183000
vn 0.182400 0.640300 -0.746200
vn 0.187200 0.583900 -0.789900
vn 0.187600 0.520900 -0.832700
vn 0.180200 0.450000 -0.874600
vn 0.155600 0.374000 -0.914300
vn -0.577900 -0.781500 0.234900
vn 0.224500 -0.802800 -0.552400
vn 0.239400 -0.771900 0.589000
vn -0.563100 -0.794100 -0.228900
vn 0.562800 -0.794300 -0.228800
vn -0.239400 -0.771800 0.589100
vn -0.224600 -0.802700 -0.552500
vn 0.577700 -0.781700 0.234800
vn 0.405500 -0.899100 0.164800
vn -0.159000 -0.906500 -0.391200
vn -0.167400 -0.895700 0.412000
vn 0.397100 -0.903500 -0.161400
vn -0.397200 -0.903400 -0.161500
vn 0.167400 -0.895700 0.411900
vn 0.159000 -0.906500 -0.391200
vn -0.405600 -0.899000 0.164900
vn 0.314900 -0.940500 0.128000
vn -0.124300 -0.944000 -0.305800
vn -0.129600 -0.938900 0.318900
vn 0.309500 -0.942500 -0.125800
vn -0.309600 -0.942500 -0.125800
vn 0.129600 -0.938900 0.318900
vn 0.124300 -0.944000 -0.305800
vn -0.314900 -0.940400 0.128000
vn 0.254900 -0.961400 0.103600
vn -0.101100 -0.963300 -0.248800
vn -0.104700 -0.960500 0.257600
vn 0.251300 -0.962500 -0.102200
vn -0.251400 -0.962500 -0.102200
vn 0.104700 -0.960600 0.257600
vn 0.101100 -0.963300 -0.248800
vn -0.255000 -0.961400 0.103600
vn 0.213300 -0.973100 0.086700
vn -0.084900 -0.974200 -0.209000
vn -0.087500 -0.972600 0.215200
vn 0.210800 -0.973800 -0.085700
vn -0.210800 -0.973800 -0.085700
vn 0.087500 -0.972600 0.215200
vn 0.084900 -0.974200 -0.209000
vn -0.213300 -0.973100 0.086700
vn 0.182700 -0.980300 0.074300
vn -0.073000 -0.981000 -0.179500
vn -0.074900 -0.980000 0.184200
vn 0.180900 -0.980800 -0.073500
vn -0.180900 -0.980800 -0.073500
vn 0.074900 -0.980000 0.184200
vn 0.073000 -0.981000 -0.179500
vn -0.182800 -0.980300 0.074300
usemtl mat2
s off
f 57//1 2//1 4//1 58//1
f 58//2 4//2 6//2 59//2
f 59//3 6//3 8//3 60//3
f 60//4 8//4 10//4 61//4
f 61//5 10//5 12//5 62//5
f 62//6 12//6 14//6 63//6
f 4//7 2//7 16//7 14//7 12//7 10//7 8//7 6//7
f 63//8 14//8 16//8 64//8
f 64//9 16//9 2//9 57//9
f 1//10 3//10 5//10 7//10 9//10 11//10 13//10 15//10
f 103//11 56//11 17//11 104//11
f 96//12 55//12 18//12 89//12
f 88//13 54//13 19//13 81//13
f 80//14 53//14 20//14 73//14
f 72//15 52//15 21//15 65//15
f 102//16 51//16 56//16 103//16
f 95//17 50//17 55//17 96//17
f 87//18 49//18 54//18 88//18
f 79//19 48//19 53//19 80//19
f 71//20 47//20 52//20 72//20
f 101//21 46//21 51//21 102//21
f 94//22 45//22 50//22 95//22
f 86//23 44//23 49//23 87//23
f 78//24 43//24 48//24 79//24
f 70//25 42//25 47//25 71//25
f 100//26 41//26 46//26 101//26
f 93//27 40//27 45//27 94//27
f 85//28 39//28 44//28 86//28
f 77//29 38//29 43//29 78//29
f 69//30 37//30 42//30 70//30
f 99//31 36//31 41//31 100//31
f 92//32 35//32 40//32 93//32
f 84//33 34//33 39//33 85//33
f 76//34 33//34 38//34 77//34
f 68//35 32//35 37//35 69//35
f 98//36 31//36 36//36 99//36
f 91//37 30//37 35//37 92//37
f 83//38 29//38 34//38 84//38
f 75//39 28//39 33//39 76//39
f 67//40 27//40 32//40 68//40
f 97//41 26//41 31//41 98//41
f 90//42 25//42 30//42 91//42
f 82//43 24//43 29//43 83//43
f 74//44 23//44 28//44 75//44
f 66//45 22//45 27//45 67//45
f 104//46 17//46 26//46 97//46
f 89//47 18//47 25//47 90//47
f 81//48 19//48 24//48 82//48
f 73//49 20//49 23//49 74//49
f 65//50 21//50 22//50 66//50
f 52//51 64//51 57//51 21//51
f 47//52 63//52 64//52 52//52
f 42//53 62//53 63//53 47//53
f 37//54 61//54 62//54 42//54
f 32//55 60//55 61//55 37//55
f 27//56 59//56 60//56 32//56
f 22//57 58//57 59//57 27//57
f 21//58 57//58 58//58 22//58
f 20//59 65//59 66//59 23//59
f 23//60 66//60 67//60 28//60
f 28//61 67//61 68//61 33//61
f 33//62 68//62 69//62 38//62
f 38//63 69//63 70//63 43//63
f 43//64 70//64 71//64 48//64
f 48//65 71//65 72//65 53//65
f 53//66 72//66 65//66 20//66
f 19//67 73//67 74//67 24//67
f 24//68 74//68 75//68 29//68
f 29//69 75//69 76//69 34//69
f 34//70 76//70 77//70 39//70
f 39//71 77//71 78//71 44//71
f 44//72 78//72 79//72 49//72
f 49//73 79//73 80//73 54//73
f 54//74 80//74 73//74 19//74
f 18//75 81//75 82//75 25//75
f 25//76 82//76 83//76 30//76
f 30//77 83//77 84//77 35//77
f 35//78 84//78 85//78 40//78
f 40//79 85//79 86//79 45//79
f 45//80 86//80 87//80 50//80
f 50//81 87//81 88//81 55//81
f 55//82 88//82 81//82 18//82
f 17//83 89//83 90//83 26//83
f 26//84 90//84 91//84 31//84
f 31//85 91//85 92//85 36//85
f 36//86 92//86 93//86 41//86
f 41//87 93//87 94//87 46//87
f 46//88 94//88 95//88 51//88
f 51//89 95//89 96//89 56//89
f 56//90 96//90 89//90 17//90
f 1//91 104//91 97//91 3//91
f 3//92 97//92 98//92 5//92
f 5//93 98//93 99//93 7//93
f 7//94 99//94 100//94 9//94
f 9//95 100//95 101//95 11//95
f 11//96 101//96 102//96 13//96
f 13//97 102//97 103//97 15//97
f 15//98 103//98 104//98 1//98
o Cylinder.003_Cylinder.004
v -0.140178 1.214339 -0.943481
v -0.139956 7.631573 -0.029365
v 0.567020 1.430980 -0.633501
v -0.066816 7.631573 0.000931
v 0.892383 1.214339 0.089080
v -0.033221 7.549336 0.085820
v 0.567020 1.430980 0.780713
v -0.066816 7.631573 0.147213
v -0.140178 1.214339 1.121642
v -0.139956 7.631573 0.177508
v -0.847194 1.430980 0.780713
v -0.213097 7.631573 0.147213
v -1.172739 1.214339 0.089080
v -0.243393 7.631573 0.074072
v -0.847194 1.430980 -0.633501
v -0.213097 7.631573 0.000931
v -0.140178 2.248315 -0.794834
v -0.140178 3.282291 -0.646187
v -0.140178 4.316266 -0.497540
v -0.140178 5.350242 -0.348893
v -0.140178 6.384217 -0.200246
v 0.058046 6.600858 -0.124527
v 0.159841 5.566882 -0.226322
v 0.261636 4.532907 -0.328117
v 0.363430 3.498931 -0.429911
v 0.465225 2.464955 -0.531706
v 0.149149 6.384217 0.089080
v 0.297796 5.350242 0.089080
v 0.446443 4.316266 0.089080
v 0.595090 3.282291 0.089080
v 0.743737 2.248315 0.089080
v 0.058046 6.600858 0.271740
v 0.159841 5.566882 0.373534
v 0.261636 4.532907 0.475329
v 0.363430 3.498931 0.577124
v 0.465225 2.464955 0.678918
v -0.140178 6.384217 0.378407
v -0.140178 5.350242 0.527054
v -0.140178 4.316266 0.675701
v -0.140178 3.282291 0.824348
v -0.140178 2.248315 0.972995
v -0.338221 6.600858 0.271740
v -0.440015 5.566882 0.373534
v -0.541810 4.532907 0.475329
v -0.643605 3.498931 0.577124
v -0.745399 2.464955 0.678918
v -0.429504 6.384217 0.089080
v -0.578151 5.350242 0.089080
v -0.726798 4.316266 0.089080
v -0.875445 3.282291 0.089080
v -1.024092 2.248315 0.089080
v -0.338221 6.600858 -0.124527
v -0.440015 5.566882 -0.226322
v -0.541810 4.532907 -0.328117
v -0.643605 3.498931 -0.429911
v -0.745399 2.464955 -0.531706
v -0.140178 6.384217 -0.358042
v 0.166106 6.600858 -0.232587
v 0.306944 6.384217 0.089080
v 0.166106 6.600858 0.379799
v -0.140178 6.384217 0.536203
v -0.446280 6.600858 0.379799
v -0.587300 6.384217 0.089080
v -0.446280 6.600858 -0.232587
v -0.140178 5.350242 -0.669923
v 0.379685 5.566882 -0.446166
v 0.618826 5.350242 0.089080
v 0.379685 5.566882 0.593378
v -0.140178 5.350242 0.848084
v -0.659860 5.566882 0.593378
v -0.899181 5.350242 0.089080
v -0.659860 5.566882 -0.446166
v -0.140178 4.316266 -0.931617
v 0.558896 4.532907 -0.625377
v 0.880520 4.316266 0.089080
v 0.558896 4.532907 0.772589
v -0.140178 4.316266 1.109778
v -0.839070 4.532907 0.772589
v -1.160876 4.316266 0.089080
v -0.839070 4.532907 -0.625377
v -0.140178 3.282291 -1.200946
v 0.743334 3.498931 -0.809815
v 1.149849 3.282291 0.089080
v 0.743334 3.498931 0.957027
v -0.140178 3.282291 1.379107
v -1.023508 3.498931 0.957027
v -1.430204 3.282291 0.089080
v -1.023508 3.498931 -0.809815
v -0.140178 2.248315 -1.473802
v 0.930189 2.464955 -0.996669
v 1.422705 2.248315 0.089081
v 0.930189 2.464955 1.143882
v -0.140178 2.248315 1.651963
v -1.210363 2.464955 1.143882
v -1.703060 2.248315 0.089080
v -1.210363 2.464955 -0.996669
v 1.121277 1.430980 -1.187758
v 1.701744 1.214339 0.089081
v 1.121277 1.430980 1.334970
v -0.140178 1.214339 1.931003
v -1.401451 1.430980 1.334970
v -1.982100 1.214339 0.089080
v -1.401451 1.430980 -1.187758
v -0.140178 1.214339 -1.752842
vn 0.238600 0.255600 -0.936900
vn 0.941100 0.267300 -0.207200
vn 0.934200 0.269000 0.234500
vn 0.297700 0.268200 0.916200
vn -0.297800 0.268300 0.916200
vn -0.923700 0.264200 0.277600
vn 0.193500 0.981100 0.000000
vn -0.929700 0.260500 -0.260500
vn -0.238700 0.255700 -0.936800
vn -0.000000 -1.000000 0.000000
vn -0.182500 0.640300 -0.746200
vn -0.187300 0.583900 -0.789900
vn -0.187600 0.520900 -0.832700
vn -0.180300 0.450000 -0.874600
vn -0.155700 0.374100 -0.914200
vn -0.743700 0.640900 -0.190400
vn -0.786900 0.584700 -0.197400
vn -0.829000 0.521900 -0.200900
vn -0.870000 0.451400 -0.198600
vn -0.908300 0.376100 -0.183400
vn -0.741900 0.641200 0.196000
vn -0.784800 0.585100 0.204200
vn -0.826500 0.522500 0.209400
vn -0.867000 0.452100 0.209600
vn -0.904900 0.377000 0.197700
vn -0.203600 0.641700 0.739400
vn -0.213900 0.585700 0.781700
vn -0.222100 0.523200 0.822700
vn -0.227000 0.453100 0.862100
vn -0.223700 0.378500 0.898200
vn 0.203600 0.641700 0.739400
vn 0.213900 0.585700 0.781800
vn 0.222100 0.523200 0.822800
vn 0.226900 0.453100 0.862100
vn 0.223600 0.378500 0.898200
vn 0.741900 0.641200 0.195800
vn 0.784800 0.585100 0.204100
vn 0.826600 0.522400 0.209200
vn 0.867100 0.452100 0.209300
vn 0.905000 0.377000 0.197300
vn 0.743700 0.640800 -0.190300
vn 0.786900 0.584700 -0.197300
vn 0.829100 0.521900 -0.200700
vn 0.870000 0.451300 -0.198400
vn 0.908300 0.376000 -0.183000
vn 0.182400 0.640300 -0.746200
vn 0.187200 0.583900 -0.789900
vn 0.187600 0.520900 -0.832700
vn 0.180200 0.450000 -0.874600
vn 0.155600 0.374000 -0.914300
vn -0.577900 -0.781500 0.234900
vn 0.224500 -0.802800 -0.552400
vn 0.239400 -0.771900 0.589000
vn -0.563100 -0.794100 -0.228900
vn 0.562800 -0.794300 -0.228800
vn -0.239400 -0.771800 0.589100
vn -0.224600 -0.802700 -0.552500
vn 0.577700 -0.781700 0.234800
vn 0.405500 -0.899100 0.164800
vn -0.159000 -0.906500 -0.391200
vn -0.167400 -0.895700 0.412000
vn 0.397100 -0.903500 -0.161400
vn -0.397200 -0.903400 -0.161500
vn 0.167400 -0.895700 0.411900
vn 0.159000 -0.906500 -0.391200
vn -0.405600 -0.899000 0.164900
vn 0.314900 -0.940500 0.128000
vn -0.124300 -0.944000 -0.305800
vn -0.129600 -0.938900 0.318900
vn 0.309500 -0.942500 -0.125800
vn -0.309600 -0.942500 -0.125800
vn 0.129600 -0.938900 0.318900
vn 0.124300 -0.944000 -0.305800
vn -0.314900 -0.940400 0.128000
vn 0.254900 -0.961400 0.103600
vn -0.101100 -0.963300 -0.248800
vn -0.104700 -0.960500 0.257600
vn 0.251300 -0.962500 -0.102200
vn -0.251400 -0.962500 -0.102200
vn 0.104700 -0.960600 0.257600
vn 0.101100 -0.963300 -0.248800
vn -0.255000 -0.961400 0.103600
vn 0.213300 -0.973100 0.086700
vn -0.084900 -0.974200 -0.209000
vn -0.087500 -0.972600 0.215200
vn 0.210800 -0.973800 -0.085700
vn -0.210800 -0.973800 -0.085700
vn 0.087500 -0.972600 0.215200
vn 0.084900 -0.974200 -0.209000
vn -0.213300 -0.973100 0.086700
vn 0.182700 -0.980300 0.074300
vn -0.073000 -0.981000 -0.179500
vn -0.074900 -0.980000 0.184200
vn 0.180900 -0.980800 -0.073500
vn -0.180900 -0.980800 -0.073500
vn 0.074900 -0.980000 0.184200
vn 0.073000 -0.981000 -0.179500
vn -0.182800 -0.980300 0.074300
usemtl mat1.001
s off
f 161//99 106//99 108//99 162//99
f 162//100 108//100 110//100 163//100
f 163//101 110//101 112//101 164//101
f 164//102 112//102 114//102 165//102
f 165//103 114//103 116//103 166//103
f 166//104 116//104 118//104 167//104
f 108//105 106//105 120//105 118//105 116//105 114//105 112//105 110//105
f 167//106 118//106 120//106 168//106
f 168//107 120//107 106//107 161//107
f 105//108 107//108 109//108 111//108 113//108 115//108 117//108 119//108
f 207//109 160//109 121//109 208//109
f 200//110 159//110 122//110 193//110
f 192//111 158//111 123//111 185//111
f 184//112 157//112 124//112 177//112
f 176//113 156//113 125//113 169//113
f 206//114 155//114 160//114 207//114
f 199//115 154//115 159//115 200//115
f 191//116 153//116 158//116 192//116
f 183//117 152//117 157//117 184//117
f 175//118 151//118 156//118 176//118
f 205//119 150//119 155//119 206//119
f 198//120 149//120 154//120 199//120
f 190//121 148//121 153//121 191//121
f 182//122 147//122 152//122 183//122
f 174//123 146//123 151//123 175//123
f 204//124 145//124 150//124 205//124
f 197//125 144//125 149//125 198//125
f 189//126 143//126 148//126 190//126
f 181//127 142//127 147//127 182//127
f 173//128 141//128 146//128 174//128
f 203//129 140//129 145//129 204//129
f 196//130 139//130 144//130 197//130
f 188//131 138//131 143//131 189//131
f 180//132 137//132 142//132 181//132
f 172//133 136//133 141//133 173//133
f 202//134 135//134 140//134 203//134
f 195//135 134//135 139//135 196//135
f 187//136 133//136 138//136 188//136
f 179//137 132//137 137//137 180//137
f 171//138 131//138 136//138 172//138
f 201//139 130//139 135//139 202//139
f 194//140 129//140 134//140 195//140
f 186//141 128//141 133//141 187//141
f 178//142 127//142 132//142 179//142
f 170//143 126//143 131//143 171//143
f 208//144 121//144 130//144 201//144
f 193//145 122//145 129//145 194//145
f 185//146 123//146 128//146 186//146
f 177//147 124//147 127//147 178//147
f 169//148 125//148 126//148 170//148
f 156//149 168//149 161//149 125//149
f 151//150 167//150 168//150 156//150
f 146//151 166//151 167//151 151//151
f 141//152 165//152 166//152 146//152
f 136//153 164//153 165//153 141//153
f 131//154 163//154 164//154 136//154
f 126//155 162//155 163//155 131//155
f 125//156 161//156 162//156 126//156
f 124//157 169//157 170//157 127//157
f 127//158 170//158 171//158 132//158
f 132//159 171//159 172//159 137//159
f 137//160 172//160 173//160 142//160
f 142//161 173//161 174//161 147//161
f 147//162 174//162 175//162 152//162
f 152//163 175//163 176//163 157//163
f 157//164 176//164 169//164 124//164
f 123//165 177//165 178//165 128//165
f 128//166 178//166 179//166 133//166
f 133//167 179//167 180//167 138//167
f 138//168 180//168 181//168 143//168
f 143//169 181//169 182//169 148//169
f 148//170 182//170 183//170 153//170
f 153//171 183//171 184//171 158//171
f 158//172 184//172 177//172 123//172
f 122//173 185//173 186//173 129//173
f 129//174 186//174 187//174 134//174
f 134//175 187//175 188//175 139//175
f 139//176 188//176 189//176 144//176
f 144//177 189//177 190//177 149//177
f 149//178 190//178 191//178 154//178
f 154//179 191//179 192//179 159//179
f 159//180 192//180 185//180 122//180
f 121//181 193//181 194//181 130//181
f 130//182 194//182 195//182 135//182
f 135//183 195//183 196//183 140//183
f 140//184 196//184 197//184 145//184
f 145//185 197//185 198//185 150//185
f 150//186 198//186 199//186 155//186
f 155//187 199//187 200//187 160//187
f 160//188 200//188 193//188 121//188
f 105//189 208//189 201//189 107//189
f 107//190 201//190 202//190 109//190
f 109//191 202//191 203//191 111//191
f 111//192 203//192 204//192 113//192
f 113//193 204//193 205//193 115//193
f 115//194 205//194 206//194 117//194
f 117//195 206//195 207//195 119//195
f 119//196 207//196 208//196 105//196
o Cylinder.002_Cylinder.003
v -0.140087 0.087705 -0.253882
v -0.140087 1.679355 -0.226394
v 0.091482 0.087705 -0.157963
v 0.072045 1.679355 -0.138526
v 0.187401 0.087705 0.073606
v 0.159913 1.679355 0.073606
v 0.091482 0.087705 0.305175
v 0.072045 1.679355 0.285738
v -0.140087 0.087705 0.401094
v -0.140087 1.679355 0.373606
v -0.371656 0.087705 0.305175
v -0.352219 1.679355 0.285738
v -0.467575 0.087705 0.073606
v -0.440087 1.679355 0.073606
v -0.371656 0.087705 -0.157963
v -0.352219 1.679355 -0.138526
v -0.140087 0.883530 -0.172234
v 0.033748 0.883530 -0.100229
v 0.105753 0.883530 0.073606
v 0.033748 0.883530 0.247442
v -0.140087 0.883530 0.319446
v -0.313923 0.883530 0.247441
v -0.385927 0.883530 0.073606
v -0.313923 0.883530 -0.100229
vn 0.381900 -0.062800 -0.922100
vn 0.922100 -0.062800 -0.381900
vn 0.922100 -0.062800 0.381900
vn 0.381900 -0.062800 0.922100
vn -0.381900 -0.062800 0.922100
vn -0.922100 -0.062800 0.381900
vn 0.000000 1.000000 -0.000000
vn -0.922100 -0.062800 -0.381900
vn -0.381900 -0.062800 -0.922100
vn 0.000000 -1.000000 -0.000000
vn -0.381000 0.094400 -0.919800
vn -0.919800 0.094400 -0.381000
vn -0.919800 0.094400 0.381000
vn -0.381000 0.094400 0.919800
vn 0.381000 0.094400 0.919800
vn 0.919800 0.094400 0.381000
vn 0.919800 0.094400 -0.381000
vn 0.381000 0.094400 -0.919800
usemtl mat1
s off
f 225//197 210//197 212//197 226//197
f 226//198 212//198 214//198 227//198
f 227//199 214//199 216//199 228//199
f 228//200 216//200 218//200 229//200
f 229//201 218//201 220//201 230//201
f 230//202 220//202 222//202 231//202
f 212//203 210//203 224//203 222//203 220//203 218//203 216//203 214//203
f 231//204 222//204 224//204 232//204
f 232//205 224//205 210//205 225//205
f 209//206 211//206 213//206 215//206 217//206 219//206 221//206 223//206
f 223//207 232//207 225//207 209//207
f 221//208 231//208 232//208 223//208
f 219//209 230//209 231//209 221//209
f 217//210 229//210 230//210 219//210
f 215//211 228//211 229//211 217//211
f 213//212 227//212 228//212 215//212
f 211//213 226//213 227//213 213//213
f 209//214 225//214 226//214 211//214
